<?xml version="1.0" encoding="UTF-8"?>
<svg xmlns="http://www.w3.org/2000/svg" xmlns:xlink="http://www.w3.org/1999/xlink" width="25px" height="25px" viewBox="0 0 25 25" version="1.1">
<g id="surface1">
<path style=" stroke:none;fill-rule:nonzero;fill:rgb(0%,0%,0%);fill-opacity:1;" d="M 23.320312 10.46875 L 13.046875 20.195312 C 12.773438 20.46875 12.304688 20.46875 12.03125 20.195312 L 1.640625 10.46875 C 1.367188 10.195312 0.9375 10.234375 0.664062 10.507812 C 0.390625 10.78125 0.429688 11.210938 0.703125 11.484375 L 11.09375 21.210938 C 11.484375 21.601562 12.03125 21.757812 12.539062 21.757812 C 13.046875 21.757812 13.59375 21.5625 13.984375 21.171875 L 24.257812 11.445312 C 24.53125 11.171875 24.53125 10.742188 24.296875 10.46875 C 24.023438 10.234375 23.59375 10.195312 23.320312 10.46875 Z M 23.320312 10.46875 "/>
<path style=" stroke:none;fill-rule:nonzero;fill:rgb(0%,0%,0%);fill-opacity:1;" d="M 11.132812 14.140625 C 11.523438 14.53125 12.070312 14.6875 12.578125 14.6875 C 13.085938 14.6875 13.632812 14.492188 14.023438 14.101562 L 24.296875 4.375 C 24.570312 4.101562 24.570312 3.671875 24.335938 3.398438 C 24.0625 3.125 23.632812 3.125 23.359375 3.359375 L 13.085938 13.164062 C 12.8125 13.4375 12.34375 13.4375 12.070312 13.164062 L 1.679688 3.4375 C 1.40625 3.164062 0.976562 3.164062 0.703125 3.4375 C 0.429688 3.710938 0.46875 4.140625 0.742188 4.414062 Z M 11.132812 14.140625 "/>
</g>
</svg>
