<?xml version="1.0" encoding="UTF-8"?>
<svg xmlns="http://www.w3.org/2000/svg" xmlns:xlink="http://www.w3.org/1999/xlink" width="25px" height="25px" viewBox="0 0 25 25" version="1.1">
<g id="surface1">
<path style=" stroke:none;fill-rule:nonzero;fill:rgb(0%,0%,0%);fill-opacity:1;" d="M 12.539062 24.53125 C 8.242188 24.53125 4.6875 21.210938 4.570312 17.109375 L 4.570312 16.289062 C 4.570312 14.296875 5.078125 12.109375 6.09375 9.765625 C 7.304688 6.953125 9.257812 3.75 11.445312 1.015625 C 11.71875 0.664062 12.109375 0.46875 12.539062 0.46875 C 12.96875 0.46875 13.359375 0.664062 13.632812 0.976562 C 15.9375 3.867188 17.851562 7.03125 18.984375 9.882812 C 19.960938 12.265625 20.429688 14.375 20.429688 16.328125 L 20.429688 17.109375 C 20.390625 21.210938 16.835938 24.53125 12.539062 24.53125 Z M 12.539062 1.875 C 10.390625 4.53125 8.515625 7.617188 7.34375 10.3125 C 6.40625 12.460938 5.9375 14.492188 5.9375 16.289062 L 5.9375 17.070312 C 6.015625 20.429688 8.984375 23.125 12.539062 23.125 C 16.132812 23.125 19.0625 20.429688 19.0625 17.109375 L 19.0625 16.328125 C 19.0625 14.570312 18.632812 12.617188 17.695312 10.390625 C 16.640625 7.695312 14.765625 4.609375 12.539062 1.875 C 12.578125 1.875 12.539062 1.875 12.539062 1.875 Z M 12.539062 1.875 "/>
</g>
</svg>
