<?xml version="1.0" encoding="UTF-8"?>
<svg xmlns="http://www.w3.org/2000/svg" xmlns:xlink="http://www.w3.org/1999/xlink" width="25px" height="25px" viewBox="0 0 25 25" version="1.1">
<g id="surface1">
<path style=" stroke:none;fill-rule:nonzero;fill:rgb(0%,0%,0%);fill-opacity:1;" d="M 23.828125 11.835938 L 1.171875 11.835938 C 0.78125 11.835938 0.46875 12.148438 0.46875 12.539062 C 0.46875 12.929688 0.78125 13.203125 1.171875 13.203125 L 23.828125 13.203125 C 24.21875 13.203125 24.53125 12.890625 24.53125 12.5 C 24.53125 12.109375 24.21875 11.835938 23.828125 11.835938 Z M 23.828125 11.835938 "/>
<path style=" stroke:none;fill-rule:nonzero;fill:rgb(0%,0%,0%);fill-opacity:1;" d="M 23.828125 18.710938 L 1.171875 18.710938 C 0.78125 18.710938 0.46875 19.023438 0.46875 19.414062 C 0.46875 19.804688 0.78125 20.078125 1.171875 20.078125 L 23.828125 20.078125 C 24.21875 20.078125 24.53125 19.765625 24.53125 19.375 C 24.53125 18.984375 24.21875 18.710938 23.828125 18.710938 Z M 23.828125 18.710938 "/>
<path style=" stroke:none;fill-rule:nonzero;fill:rgb(0%,0%,0%);fill-opacity:1;" d="M 1.171875 6.289062 L 23.828125 6.289062 C 24.21875 6.289062 24.53125 5.976562 24.53125 5.585938 C 24.53125 5.195312 24.21875 4.921875 23.828125 4.921875 L 1.171875 4.921875 C 0.78125 4.921875 0.46875 5.234375 0.46875 5.625 C 0.46875 6.015625 0.78125 6.289062 1.171875 6.289062 Z M 1.171875 6.289062 "/>
</g>
</svg>
